<svg width="17" height="19" viewBox="0 0 17 19" fill="none" xmlns="http://www.w3.org/2000/svg">
<path fill-rule="evenodd" clip-rule="evenodd" d="M5.16669 0.5C5.44283 0.5 5.66669 0.723858 5.66669 1V2.16666H11.3333V1C11.3333 0.723858 11.5572 0.5 11.8333 0.5C12.1094 0.5 12.3333 0.723858 12.3333 1V2.16666H14.3333C15.5299 2.16666 16.5 3.13671 16.5 4.33333V16C16.5 17.1966 15.5299 18.1666 14.3333 18.1666H2.66667C1.47006 18.1666 0.5 17.1966 0.5 16V4.33333C0.5 3.13672 1.47005 2.16666 2.66667 2.16666H4.66669V1C4.66669 0.723858 4.89055 0.5 5.16669 0.5ZM4.66669 3.16666H2.66667C2.02233 3.16666 1.5 3.689 1.5 4.33333V7.16666H15.5V4.33333C15.5 3.68901 14.9777 3.16666 14.3333 3.16666H12.3333V4.33333C12.3333 4.60947 12.1094 4.83333 11.8333 4.83333C11.5572 4.83333 11.3333 4.60947 11.3333 4.33333V3.16666H5.66669V4.33333C5.66669 4.60947 5.44283 4.83333 5.16669 4.83333C4.89055 4.83333 4.66669 4.60947 4.66669 4.33333V3.16666ZM15.5 8.16666H1.5V16C1.5 16.6443 2.02232 17.1666 2.66667 17.1666H14.3333C14.9777 17.1666 15.5 16.6443 15.5 16V8.16666Z" fill="#949494"/>
</svg>
