<svg width="25" height="15" viewBox="0 0 25 15" fill="none" xmlns="http://www.w3.org/2000/svg">
<path fill-rule="evenodd" clip-rule="evenodd" d="M1.66741 12.7155C0.749776 12.7155 0 11.9443 0 10.9876V1.72787C0 0.776962 0.749776 0 1.66741 0H18.0282C18.2744 0 18.4926 0.168148 18.571 0.417472L20.714 6.12292L23.7075 7.03324C24.4573 7.1782 25 7.85659 25 8.64515V11.0746C25 11.9791 24.2894 12.7155 23.4165 12.7155H22.7003C22.4373 14.0201 21.3239 15 19.9922 15C18.6605 15 17.5414 14.0143 17.284 12.7155H8.25873C7.99575 14.0201 6.88228 15 5.55058 15C4.21889 15 3.09982 14.0143 2.84244 12.7155H1.66741ZM11.8733 1.15964H6.69763H1.66741C1.36526 1.15964 1.11907 1.41477 1.11907 2.88752V7.20719V9.38153V10.9876C1.11907 11.3007 1.36526 11.5559 1.66182 11.5559H2.83684C3.09982 10.2513 4.2133 9.27136 5.54499 9.27136C6.87668 9.27136 7.99575 10.2571 8.25314 11.5559H11.9908V1.15964H11.8733ZM17.2784 11.5559H12.998V1.15964H17.603L19.5166 6.04755L19.9866 7.12022L23.4949 8.1697C23.7131 8.21028 23.8753 8.41322 23.8753 8.64515V11.0746C23.8753 11.3413 23.6683 11.5559 23.4109 11.5559H22.6947C22.4373 10.2571 21.3183 9.27136 19.9866 9.27136C18.6549 9.27136 17.5414 10.2513 17.2784 11.5559ZM3.89996 12.1415C3.90555 13.0808 4.63854 13.8404 5.54499 13.8404C6.45143 13.8404 7.19002 13.075 7.19002 12.1473V12.1415V12.1357C7.18442 11.1964 6.45143 10.4368 5.54499 10.4368C4.63854 10.4368 3.90555 11.1964 3.89996 12.1299V12.1357V12.1415ZM18.3415 12.1415C18.3471 13.0808 19.0801 13.8404 19.9866 13.8404C20.8874 13.8404 21.626 13.075 21.6316 12.1415V12.1357V12.1299C21.626 11.1906 20.893 10.431 19.9866 10.431C19.0801 10.431 18.3415 11.1906 18.3415 12.1299V12.1357V12.1415ZM14.9899 5.76922H17.3288C17.6813 5.76922 18.0002 5.57208 18.1681 5.24738C18.3303 4.94007 18.3192 4.57478 18.1513 4.27908L17.2393 2.06995L17.1945 1.98298C17.0154 1.70466 16.7189 1.54231 16.4 1.54231H14.9899C14.464 1.54231 14.0331 1.98878 14.0331 2.53381V4.77772C14.0331 5.32276 14.464 5.76922 14.9899 5.76922ZM17.2393 4.72554H15.0403H15.0347V2.58599L16.344 2.5628L17.2393 4.72554ZM9.28827 7.67686H10.7151C10.9893 7.67686 11.2187 7.44493 11.2187 7.15502C11.2187 6.86511 10.9948 6.63318 10.7151 6.63318H9.28827C9.0085 6.63318 8.78469 6.86511 8.78469 7.15502C8.78469 7.44493 9.0085 7.67686 9.28827 7.67686Z" fill="#3E3EAF"/>
</svg>
