<svg width="21" height="17" viewBox="0 0 21 17" fill="none" xmlns="http://www.w3.org/2000/svg">
<path d="M18.8414 4.2367C18.8548 4.42263 18.8548 4.6086 18.8548 4.79453C18.8548 10.4656 14.5242 17 6.60916 17C4.17069 17 1.90547 16.2961 0 15.0742C0.34646 15.1141 0.67955 15.1273 1.03934 15.1273C3.05137 15.1273 4.90356 14.45 6.38263 13.2945C4.49049 13.2547 2.90482 12.0195 2.35849 10.3195C2.62501 10.3593 2.89149 10.3859 3.17134 10.3859C3.55775 10.3859 3.9442 10.3328 4.30395 10.2399C2.33187 9.84138 0.852759 8.11484 0.852759 6.02968V5.97657C1.42571 6.29533 2.09201 6.49454 2.79818 6.52107C1.63891 5.75075 0.879419 4.43592 0.879419 2.94841C0.879419 2.15155 1.09258 1.42108 1.4657 0.783574C3.58437 3.3867 6.76904 5.08667 10.3401 5.27264C10.2735 4.95389 10.2335 4.62189 10.2335 4.28985C10.2335 1.92576 12.1523 0 14.5374 0C15.7766 0 16.8959 0.517967 17.6821 1.35469C18.6548 1.16876 19.5875 0.810147 20.4137 0.318752C20.0939 1.31487 19.4143 2.15159 18.5216 2.6828C19.3877 2.58988 20.2272 2.35076 21 2.01876C20.4138 2.86873 19.6809 3.62573 18.8414 4.2367Z" fill="white"/>
</svg>
