<svg width="30" height="18" viewBox="0 0 30 18" fill="none" xmlns="http://www.w3.org/2000/svg">
<path fill-rule="evenodd" clip-rule="evenodd" d="M25.8 4.92008C25.9591 4.92008 26.1117 4.98539 26.2242 5.10148L29.8242 8.81649C29.9367 8.93258 30 9.09009 30 9.25426V15.0922C30 15.4341 29.7313 15.7114 29.4 15.7114H27.6496C27.3734 17.0176 26.2467 18 24.8991 18C23.5518 18 22.4251 17.0176 22.1489 15.7114H20.3985H8.29874C8.02251 17.0176 6.89583 18 5.54824 18C4.20092 18 3.07427 17.0176 2.79803 15.7114H0.6C0.268652 15.7114 0 15.4341 0 15.0922V0.619168C0 0.277235 0.268652 0 0.6 0H20.3985C20.7299 0 20.9985 0.277235 20.9985 0.619168V4.92008H25.8ZM19.7985 5.53925V1.23834H1.2V9.49219H19.7985V5.53925ZM19.7985 10.7305H1.2V14.473H2.79803C3.07427 13.1668 4.20092 12.1844 5.54824 12.1844C6.89583 12.1844 8.02251 13.1668 8.29874 14.473H19.7985V10.7305ZM3.93047 15.0922C3.93047 16.0128 4.65615 16.7617 5.54824 16.7617C6.44033 16.7617 7.16631 16.0128 7.16631 15.0922C7.16631 14.1716 6.44033 13.4228 5.54824 13.4228C4.65615 13.4228 3.93047 14.1716 3.93047 15.0922ZM23.2813 15.0922C23.2813 16.0128 24.007 16.7617 24.8991 16.7617C25.7912 16.7617 26.5172 16.0128 26.5172 15.0922C26.5172 14.1716 25.7912 13.4228 24.8991 13.4228C24.007 13.4228 23.2813 14.1716 23.2813 15.0922ZM27.6496 14.473H28.8V9.51063L25.5516 6.15842H20.9985V14.473H22.1489C22.4251 13.1668 23.5518 12.1844 24.8991 12.1844C26.2467 12.1844 27.3734 13.1668 27.6496 14.473ZM27.621 9.84141C27.7299 10.0292 27.743 10.2713 27.6471 10.4739C27.5512 10.6765 27.3682 10.8 27.1677 10.8H22.3739C22.0732 10.8 21.8292 10.5233 21.8292 10.1824V7.21765C21.8292 6.87671 22.0732 6.6 22.3739 6.6H24.2481C24.4311 6.6 24.6011 6.70377 24.7013 6.87671L27.621 9.84141ZM22.9187 9.56471H25.6527L23.9561 7.8353H22.9187V9.56471Z" fill="#3E3EAF"/>
</svg>
