<svg width="27" height="25" viewBox="0 0 27 25" fill="none" xmlns="http://www.w3.org/2000/svg">
<path fill-rule="evenodd" clip-rule="evenodd" d="M3 10.9349C3 6.55256 6.55256 3 10.9349 3C15.3172 3 18.8697 6.55256 18.8697 10.9349C18.8697 15.3172 15.3172 18.8697 10.9349 18.8697C6.55256 18.8697 3 15.3172 3 10.9349ZM10.9349 0C4.8957 0 0 4.8957 0 10.9349C0 16.974 4.8957 21.8697 10.9349 21.8697C14.1459 21.8697 17.0336 20.4857 19.0341 18.2816C19.1037 18.4175 19.1954 18.5451 19.3092 18.6589L24.4394 23.7891C25.0252 24.3749 25.9749 24.3749 26.5607 23.7891C27.1465 23.2033 27.1465 22.2536 26.5607 21.6678L21.4305 16.5376C21.1885 16.2955 20.8842 16.1535 20.5692 16.1115C21.3989 14.5705 21.8697 12.8077 21.8697 10.9349C21.8697 4.8957 16.974 0 10.9349 0Z" fill="#22226D"/>
</svg>
