<svg width="18" height="19" viewBox="0 0 18 19" fill="none" xmlns="http://www.w3.org/2000/svg">
<path d="M9.00201 4.62864C6.44808 4.62864 4.38806 6.80358 4.38806 9.5C4.38806 12.1964 6.44808 14.3714 9.00201 14.3714C11.5559 14.3714 13.616 12.1964 13.616 9.5C13.616 6.80358 11.5559 4.62864 9.00201 4.62864ZM9.00201 12.667C7.35159 12.667 6.00234 11.2467 6.00234 9.5C6.00234 7.75326 7.34757 6.33298 9.00201 6.33298C10.6564 6.33298 12.0017 7.75326 12.0017 9.5C12.0017 11.2467 10.6524 12.667 9.00201 12.667ZM14.8809 4.42938C14.8809 5.06108 14.399 5.5656 13.8047 5.5656C13.2064 5.5656 12.7285 5.05684 12.7285 4.42938C12.7285 3.80191 13.2104 3.29315 13.8047 3.29315C14.399 3.29315 14.8809 3.80191 14.8809 4.42938ZM17.9368 5.58256C17.8685 4.06053 17.5392 2.71232 16.4831 1.60153C15.431 0.49074 14.154 0.143088 12.7124 0.0667745C11.2267 -0.0222582 6.77334 -0.0222582 5.28756 0.0667745C3.84997 0.138849 2.57301 0.4865 1.5169 1.59729C0.460792 2.70808 0.135527 4.05629 0.063246 5.57832C-0.021082 7.14699 -0.021082 11.8488 0.063246 13.4174C0.131511 14.9395 0.460792 16.2877 1.5169 17.3985C2.57301 18.5093 3.84596 18.8569 5.28756 18.9332C6.77334 19.0223 11.2267 19.0223 12.7124 18.9332C14.154 18.8612 15.431 18.5135 16.4831 17.3985C17.5352 16.2877 17.8645 14.9395 17.9368 13.4174C18.0211 11.8488 18.0211 7.15123 17.9368 5.58256ZM16.0173 15.1006C15.7041 15.9316 15.0977 16.5717 14.3066 16.9067C13.122 17.4027 10.3111 17.2882 9.00201 17.2882C7.69292 17.2882 4.87797 17.3985 3.69738 16.9067C2.91032 16.576 2.30396 15.9358 1.98673 15.1006C1.5169 13.8499 1.62532 10.8821 1.62532 9.5C1.62532 8.11787 1.52091 5.14588 1.98673 3.89942C2.29994 3.06845 2.9063 2.42826 3.69738 2.09333C4.88199 1.59729 7.69292 1.71176 9.00201 1.71176C10.3111 1.71176 13.126 1.60153 14.3066 2.09333C15.0937 2.42402 15.7001 3.06421 16.0173 3.89942C16.4871 5.15012 16.3787 8.11787 16.3787 9.5C16.3787 10.8821 16.4871 13.8541 16.0173 15.1006Z" fill="white"/>
</svg>
