<svg width="28" height="16" viewBox="0 0 28 16" fill="none" xmlns="http://www.w3.org/2000/svg">
<path fill-rule="evenodd" clip-rule="evenodd" d="M22.7248 7.15585C23.0496 7.06742 23.3856 7.02025 23.7384 7.02025C26.0848 7.02025 28 9.03066 28 11.5068C28 13.983 26.0792 15.9993 23.7328 15.9993C21.3864 15.9993 19.4712 13.9889 19.4712 11.5127C19.4712 9.82657 20.3616 8.35266 21.672 7.58623L19.9584 2.96996L19.32 1.24255L16.4416 1.70241C16.1336 1.74957 15.848 1.53143 15.8032 1.20717C15.7584 0.882915 15.9656 0.582239 16.2736 0.535074L19.5944 0.00446846C19.8464 -0.0309052 20.104 0.116485 20.1992 0.375892L20.804 2.00898C21.0896 1.89107 21.4592 1.73188 21.7896 1.58449C21.9296 1.51964 22.092 1.51964 22.232 1.58449C22.372 1.64935 22.484 1.76726 22.5344 1.92054L23.4752 4.60894C23.5816 4.90373 23.4472 5.22798 23.1728 5.35179L22.2152 5.78807L22.7248 7.15585ZM22.2432 4.49103L21.6888 2.90511C21.5936 2.94343 21.5096 2.9788 21.4326 3.01123L21.4326 3.01124L21.4324 3.01134L21.4321 3.01143L21.4319 3.01153C21.3552 3.04384 21.2854 3.07322 21.2184 3.09967L21.8064 4.68559L22.2432 4.49103ZM20.5968 11.5068C20.5968 13.3286 22.008 14.8143 23.7384 14.8143C25.4688 14.8143 26.88 13.3286 26.88 11.5068C26.88 9.68507 25.4688 8.19938 23.7384 8.19938C23.5312 8.19938 23.3296 8.22296 23.1336 8.26423L24.2592 11.2946C24.3712 11.6011 24.2256 11.9431 23.94 12.061C23.8728 12.0905 23.8056 12.1023 23.7384 12.1023C23.5144 12.1023 23.3016 11.9549 23.2176 11.725L22.092 8.69461C21.196 9.27827 20.5968 10.3159 20.5968 11.5068ZM7.4032 11.5068C7.4032 10.8208 7.20612 10.1866 6.86844 9.66008L4.55281 11.5953C4.46881 11.6719 4.35681 11.7073 4.24481 11.7073C4.09361 11.7073 3.94801 11.6365 3.84721 11.5068C3.67361 11.2769 3.71281 10.9408 3.93121 10.764L6.15632 8.90444L5.3368 8.40572C5.0008 8.27602 4.6424 8.19938 4.2616 8.19938C2.5312 8.19938 1.12 9.68507 1.12 11.5068C1.12 13.3286 2.5312 14.8143 4.2616 14.8143C5.992 14.8143 7.4032 13.3286 7.4032 11.5068ZM8.33859 10.212C8.20517 9.748 8.00229 9.31617 7.74309 8.92914L10.5493 6.58399H19.5608C19.7344 6.58399 19.8968 6.48376 19.9864 6.31868C20.076 6.1595 20.0816 5.96495 20.0032 5.79987L19.264 4.29059C18.6816 3.09968 17.5336 2.36273 16.2624 2.36273H14.0616C13.4008 2.36273 11.9 3.51237 10.836 4.4085L10.2256 3.40625C10.192 3.34729 10.1472 3.30013 10.0912 3.25886C9.84481 3.0761 9.55361 2.98177 9.25121 2.98177H5.16321C4.59201 2.98177 4.07121 3.3355 3.84161 3.8779L2.99041 5.82935C2.91761 5.99443 2.92321 6.19488 3.01841 6.34227C3.11361 6.48966 3.27041 6.58399 3.44401 6.58399H8.93299L7.07114 8.13993C7.00797 8.08116 6.94316 8.0243 6.8768 7.96945L5.9136 7.36809C5.404 7.14406 4.8496 7.02025 4.2616 7.02025C1.9096 7.02025 0 9.03655 0 11.5068C0 13.9771 1.9152 15.9934 4.2616 15.9934C6.4344 15.9934 8.232 14.2719 8.4896 12.0551L8.45751 11.418L11.9728 12.9572C12.0344 12.9866 12.1016 12.9984 12.1688 12.9984H18.5024C18.7768 12.9984 19.0008 12.7685 19.012 12.4737L19.0792 8.4706C19.0848 8.17582 18.8664 7.9341 18.5864 7.92821C18.3288 7.9341 18.0768 8.15224 18.0712 8.44702L18.0096 11.9313H12.2696L8.33859 10.212ZM11.7208 11.1826H14.6328C14.9408 11.1826 15.1928 10.9173 15.1928 10.593C15.1928 10.2688 14.9408 10.0035 14.6328 10.0035H11.7208C11.4128 10.0035 11.1608 10.2688 11.1608 10.593C11.1608 10.9173 11.4128 11.1826 11.7208 11.1826ZM18.732 5.52278H11.1384C12.292 4.53231 13.7144 3.48289 14.0616 3.43573H16.2624C17.1528 3.43573 17.9592 3.95454 18.368 4.78582L18.732 5.52278ZM10.3152 5.52278H4.23361L4.76001 4.32597C4.83281 4.15499 4.99521 4.04887 5.16881 4.04887H9.25681C9.31841 4.04887 9.38561 4.06066 9.44161 4.09014L10.2928 5.4874C10.2984 5.49919 10.304 5.51098 10.3152 5.52278Z" fill="#3E3EAF"/>
</svg>
