<svg width="17" height="20" viewBox="0 0 17 20" fill="none" xmlns="http://www.w3.org/2000/svg">
<path fill-rule="evenodd" clip-rule="evenodd" d="M8.5 1.5C6.64349 1.5 4.863 2.23749 3.55025 3.55024C2.2375 4.86301 1.5 6.64348 1.5 8.5C1.5 11.2157 3.25787 13.8021 5.11298 15.7603C6.03031 16.7286 6.94933 17.5201 7.63959 18.0698C7.98432 18.3443 8.27098 18.5577 8.47048 18.7017C8.48054 18.709 8.49038 18.7161 8.5 18.723C8.50961 18.7161 8.51946 18.709 8.52952 18.7017C8.72902 18.5577 9.01568 18.3443 9.36041 18.0698C10.0507 17.5201 10.9697 16.7286 11.887 15.7603C13.7421 13.8021 15.5 11.2157 15.5 8.5C15.5 6.64348 14.7625 4.86301 13.4497 3.55024C12.137 2.23749 10.3565 1.5 8.5 1.5ZM8.5 19.3333C8.22265 19.7493 8.22251 19.7493 8.22234 19.7491L8.22187 19.7488L8.2204 19.7478L8.21544 19.7445L8.19755 19.7324C8.18214 19.7219 8.15983 19.7067 8.13109 19.6868C8.0736 19.647 7.99034 19.5885 7.88499 19.5124C7.67434 19.3603 7.37506 19.1375 7.01666 18.8521C6.30067 18.2819 5.34469 17.4589 4.38702 16.448C2.49213 14.4479 0.5 11.6176 0.5 8.5C0.5 6.37826 1.34286 4.34344 2.84315 2.84314L2.84315 2.84314C4.34344 1.34285 6.37827 0.5 8.5 0.5C10.6217 0.5 12.6566 1.34285 14.1569 2.84314L13.8033 3.19669L14.1569 2.84314C15.6571 4.34343 16.5 6.37826 16.5 8.5C16.5 11.6176 14.5079 14.4479 12.613 16.448C11.6553 17.4589 10.6993 18.2819 9.98334 18.8521C9.62494 19.1375 9.32566 19.3603 9.11501 19.5124C9.00966 19.5885 8.9264 19.647 8.86891 19.6868C8.84017 19.7067 8.81786 19.7219 8.80245 19.7324L8.78456 19.7445L8.7796 19.7478L8.77813 19.7488L8.77765 19.7491C8.77749 19.7493 8.77735 19.7493 8.5 19.3333ZM8.5 19.3333L8.77735 19.7493C8.6094 19.8613 8.3906 19.8613 8.22265 19.7493L8.5 19.3333ZM5.5 8.49999C5.5 6.84314 6.84315 5.49999 8.5 5.49999C10.1568 5.49999 11.5 6.84314 11.5 8.49999C11.5 10.1569 10.1568 11.5 8.5 11.5C6.84314 11.5 5.5 10.1569 5.5 8.49999ZM8.5 6.49999C7.39543 6.49999 6.5 7.39542 6.5 8.49999C6.5 9.60458 7.39544 10.5 8.5 10.5C9.60455 10.5 10.5 9.60458 10.5 8.49999C10.5 7.39542 9.60456 6.49999 8.5 6.49999Z" fill="#939393"/>
</svg>
