<svg width="30" height="17" viewBox="0 0 30 17" fill="none" xmlns="http://www.w3.org/2000/svg">
<path fill-rule="evenodd" clip-rule="evenodd" d="M30 0.582192V3.37671C30 3.69808 29.7395 3.9589 29.4186 3.9589H27.6093L29.9302 8.22055C29.9767 8.30438 30 8.40219 30 8.5V13.1575C30 13.4789 29.7395 13.7397 29.4186 13.7397H27.6512C27.6651 13.8655 27.6744 13.9773 27.6744 14.089C27.6744 15.6959 26.3721 17 24.7674 17C23.1628 17 21.8605 15.6959 21.8605 14.089C21.8605 13.9773 21.8698 13.8608 21.8837 13.7397H11.3721C11.386 13.8608 11.3953 13.9773 11.3953 14.089C11.3953 15.6959 10.093 17 8.48837 17C6.88372 17 5.5814 15.6959 5.5814 14.089C5.5814 13.9773 5.5907 13.8608 5.60465 13.7397H2.44186C2.12093 13.7397 1.86047 13.4789 1.86047 13.1575V12.3425H0.581395C0.260465 12.3425 0 12.0816 0 11.7603V5.70548C0 5.38411 0.260465 5.12329 0.581395 5.12329H1.86047V3.84247C1.86047 3.70274 1.91163 3.56767 2 3.46521L4.7907 0.204932C4.90233 0.0745206 5.06047 0 5.23256 0H29.4186C29.7395 0 30 0.260822 30 0.582192ZM16.2791 12.5753V3.9589H12.7907V12.5753H16.2791ZM12.2093 2.79452H16.8605C17.1814 2.79452 17.4419 3.05534 17.4419 3.37671V12.5753H18.6047V3.37671C18.6047 3.05534 18.8651 2.79452 19.186 2.79452H28.8372V1.16438H5.50233L3.02326 4.05671V12.5707H6C6.0186 12.5381 6.03256 12.5148 6.05116 12.4915L6.07442 12.4589C6.12558 12.3844 6.17674 12.3145 6.23256 12.2447C6.25086 12.2202 6.27117 12.1978 6.29085 12.176C6.30117 12.1646 6.31133 12.1534 6.32093 12.1422C6.38605 12.0677 6.44651 12.0071 6.50698 11.9512C6.52558 11.9349 6.54534 11.9186 6.56511 11.9023C6.58488 11.886 6.60465 11.8697 6.62326 11.8534C6.68372 11.8022 6.74884 11.751 6.8186 11.7044C6.83954 11.6904 6.86163 11.6764 6.88372 11.6625C6.90582 11.6485 6.92791 11.6345 6.94884 11.6205C7.0186 11.574 7.08837 11.5367 7.16279 11.4995L7.19535 11.4855C7.22788 11.4669 7.26506 11.4482 7.30225 11.4296L7.30233 11.4296C7.37674 11.397 7.45581 11.369 7.53488 11.3411L7.57675 11.3271C7.5981 11.3218 7.61792 11.3149 7.63709 11.3082C7.65132 11.3033 7.6652 11.2985 7.67907 11.2945C7.74535 11.2736 7.81163 11.2605 7.8779 11.2474C7.9 11.243 7.92209 11.2386 7.94419 11.234L7.9907 11.2247L8.07442 11.2107C8.35349 11.1688 8.6093 11.1688 8.88837 11.2107C8.90233 11.213 8.91628 11.2165 8.93023 11.22C8.94419 11.2235 8.95814 11.227 8.97209 11.2293L9.0186 11.2386C9.10698 11.2573 9.19535 11.2759 9.28372 11.2992C9.28955 11.3008 9.29553 11.3025 9.3016 11.3042C9.32945 11.312 9.35932 11.3203 9.38605 11.3318L9.43256 11.3458C9.51163 11.3737 9.58605 11.4016 9.66047 11.4342C9.68139 11.4436 9.70116 11.454 9.72093 11.4645C9.7407 11.475 9.76046 11.4855 9.7814 11.4948L9.8093 11.5088C9.87907 11.5414 9.94884 11.5786 10.014 11.6205C10.0605 11.6485 10.107 11.6811 10.1535 11.7137C10.1736 11.7292 10.1938 11.7442 10.2139 11.7592C10.2543 11.7893 10.2946 11.8193 10.3349 11.8534C10.3814 11.8907 10.4233 11.9279 10.4651 11.9652C10.5209 12.0164 10.5767 12.0723 10.6279 12.1282C10.6651 12.1655 10.7023 12.2074 10.7395 12.254C10.786 12.3145 10.8326 12.3797 10.8791 12.4449L10.9023 12.4775C10.914 12.4938 10.9244 12.5101 10.9349 12.5264C10.9453 12.5427 10.9558 12.559 10.9674 12.5753H11.6279V3.37671C11.6279 3.05534 11.8884 2.79452 12.2093 2.79452ZM6.74419 14.089C6.74419 15.0532 7.52558 15.8356 8.48837 15.8356C9.45116 15.8356 10.2326 15.0532 10.2326 14.089C10.2326 13.8468 10.1814 13.6093 10.0884 13.3858C9.84651 12.8408 9.34884 12.4589 8.76279 12.3658C8.66512 12.3518 8.57674 12.3425 8.48837 12.3425C7.79535 12.3425 7.16744 12.757 6.88372 13.3951C6.7907 13.614 6.74419 13.8468 6.74419 14.089ZM23.0233 14.089C23.0233 15.0532 23.8047 15.8356 24.7674 15.8356C25.7302 15.8356 26.5116 15.0532 26.5116 14.089C26.5116 13.8468 26.4651 13.6093 26.3674 13.3858C26.1256 12.8408 25.6279 12.4589 25.0419 12.3658C24.9442 12.3518 24.8558 12.3425 24.7674 12.3425C24.0744 12.3425 23.4465 12.757 23.1628 13.3951C23.0698 13.614 23.0233 13.8468 23.0233 14.089ZM26.293 11.6205C26.3395 11.6485 26.386 11.6811 26.4326 11.7137C26.4977 11.7556 26.5581 11.8022 26.6186 11.8534C26.6651 11.8907 26.7069 11.9279 26.7488 11.9652L26.7488 11.9652C26.8047 12.0164 26.8605 12.0723 26.9116 12.1282C26.9488 12.1655 26.986 12.2074 27.0233 12.254C27.0698 12.3145 27.1163 12.3797 27.1628 12.4449L27.1628 12.4449L27.186 12.4822C27.1954 12.4985 27.2058 12.5136 27.2163 12.5288C27.2267 12.5439 27.2372 12.559 27.2465 12.5753H28.8372V8.64904L26.2837 3.9589H19.7674V12.5753H22.2791C22.2882 12.5626 22.2959 12.5512 22.3029 12.5408C22.314 12.5245 22.3236 12.5103 22.3349 12.4962L22.3581 12.4636C22.4093 12.389 22.4605 12.3192 22.5163 12.2493C22.5395 12.2214 22.5674 12.1888 22.5954 12.1608C22.6698 12.0723 22.7302 12.0118 22.7907 11.9559C22.8162 11.9303 22.844 11.9069 22.8709 11.8843C22.8832 11.8739 22.8953 11.8637 22.907 11.8534C22.9674 11.8022 23.0326 11.751 23.1023 11.7044C23.1442 11.6718 23.186 11.6438 23.2326 11.6159C23.3023 11.5693 23.3721 11.5321 23.4465 11.4948L23.4744 11.4808L23.586 11.4249C23.6605 11.3923 23.7395 11.3644 23.8186 11.3364L23.8605 11.3225C23.8767 11.3178 23.8942 11.312 23.9116 11.3062C23.9291 11.3003 23.9465 11.2945 23.9628 11.2899C24.0291 11.2689 24.0954 11.2558 24.1616 11.2427C24.1837 11.2383 24.2058 11.234 24.2279 11.2293L24.2744 11.22L24.3581 11.206C24.6372 11.1641 24.893 11.1641 25.1721 11.206C25.186 11.2084 25.2 11.2118 25.214 11.2153C25.2279 11.2188 25.2419 11.2223 25.2558 11.2247L25.3023 11.234C25.3907 11.2526 25.4791 11.2712 25.5674 11.2945C25.5837 11.3015 25.6012 11.3073 25.6186 11.3132C25.636 11.319 25.6535 11.3248 25.6698 11.3318L25.7116 11.3458C25.7907 11.3737 25.8651 11.4016 25.9395 11.4342C25.986 11.4529 26.0233 11.4715 26.0651 11.4948C26.1581 11.5414 26.2279 11.5786 26.293 11.6205ZM1.86047 11.1781V6.28767H1.16279V11.1781H1.86047ZM27.1116 8.17865C27.2279 8.35563 27.2419 8.58385 27.1395 8.77481C27.0372 8.96577 26.8419 9.08221 26.6279 9.08221H21.5116C21.1907 9.08221 20.9302 8.82138 20.9302 8.50002V5.70549C20.9302 5.38412 21.1907 5.1233 21.5116 5.1233H24.7674C24.9628 5.1233 25.1442 5.22111 25.2512 5.38413L27.1116 8.17865ZM22.093 7.91782H25.5395L24.4558 6.28769H22.093V7.91782Z" fill="#3E3EAF"/>
</svg>
