<svg width="28" height="11" viewBox="0 0 28 11" fill="none" xmlns="http://www.w3.org/2000/svg">
<path d="M27.3559 5.76284C27.3296 5.64647 27.27 5.54133 27.1853 5.46155C25.6759 4.03834 21.5147 3.8779 20.2629 3.86234C18.0791 0.468067 13.7535 0.0529996 12.4129 0.00662494C12.4021 0.00597687 12.3929 0 12.3818 0C12.3744 0 12.3683 0.00417658 12.3609 0.00446464C12.1647 -0.00140418 12.0366 0.000180007 12.0061 0.000864123C7.23354 0.000864123 4.52213 2.73063 3.84072 3.51612L1.43501 3.68894C1.17852 3.70738 0.966879 3.90756 0.922035 4.17429L0.666643 5.68795L0.128516 6.37233C0.0453908 6.47833 0 6.61141 0 6.74851V8.88117C0 9.19456 0.232423 9.45322 0.529377 9.46993L4.32156 9.68696C4.71374 10.4638 5.48114 11 6.37331 11C7.25764 11 8.0192 10.473 8.41459 9.70727H20.7957C21.1911 10.473 21.9525 11 22.8365 11C23.7208 11 24.4824 10.473 24.8778 9.70727H25.345C25.3844 9.70727 25.4238 9.70266 25.4626 9.69402L27.5577 9.22106C27.7053 9.18764 27.8339 9.09317 27.9142 8.95836C27.9946 8.82356 28.0198 8.66053 27.9842 8.50614L27.3559 5.76284ZM18.7979 3.83411L12.9418 3.7001V1.22763C14.3575 1.3615 17.0759 1.88364 18.7979 3.83411ZM11.8218 3.67447L5.47667 3.52922C6.59024 2.58099 8.70892 1.24484 11.8218 1.18842V3.67447ZM6.37331 9.82018C5.70502 9.82018 5.16088 9.24756 5.16088 8.54359C5.16088 7.83961 5.70502 7.26641 6.37331 7.26641C7.04159 7.26641 7.58573 7.83961 7.58573 8.54359C7.58573 9.24756 7.04159 9.82018 6.37331 9.82018ZM22.8365 9.82018C22.1682 9.82018 21.6246 9.24756 21.6246 8.54359C21.6246 7.83961 22.1682 7.26641 22.8365 7.26641C23.5048 7.26641 24.0489 7.83961 24.0489 8.54359C24.0489 9.24756 23.5048 9.82018 22.8365 9.82018ZM25.2854 8.52746H25.1674C25.1589 7.18007 24.1175 6.0866 22.8365 6.0866C21.556 6.0866 20.5146 7.18007 20.5061 8.52746H8.7042C8.69572 7.18007 7.65433 6.0866 6.37331 6.0866C5.10445 6.0866 4.07376 7.16038 4.046 8.49012L1.12 8.32237V6.96109L1.62368 6.32048C1.68548 6.24214 1.72649 6.14766 1.74344 6.04742L1.94798 4.83448L4.12174 4.67861L19.9446 5.04072C19.9484 5.04072 19.9528 5.04072 19.9566 5.04072C19.9577 5.04072 19.9588 5.04072 19.9599 5.04072C21.297 5.02689 25.0185 5.23457 26.3119 6.23292L26.7609 8.19448L25.2854 8.52746Z" fill="#3E3EAF"/>
</svg>
