<svg width="24" height="12" viewBox="0 0 24 12" fill="none" xmlns="http://www.w3.org/2000/svg">
<path fill-rule="evenodd" clip-rule="evenodd" d="M13.5 9.23077H6.96438C6.72099 10.7942 5.25997 12 3.5 12C1.57031 12 4.16038e-09 10.5505 4.16038e-09 8.76923C4.16038e-09 6.98798 1.57031 5.53846 3.5 5.53846C4.0385 5.53846 4.54901 5.65134 5.00522 5.85281L5.44026 5.25049C4.46947 4.83926 2.23515 4.15274 0.901827 5.8134C0.803682 5.93555 0.652315 6 0.499483 6C0.395968 6 0.291476 5.97071 0.20212 5.90941C-0.0195597 5.75751 -0.0659464 5.46815 0.0981161 5.26352C1.73138 3.23067 4.46693 3.77216 6.0034 4.47082L7 3.09102V0.923077H6C5.72363 0.923077 5.5 0.716647 5.5 0.461538C5.5 0.20643 5.72363 0 6 0H7.5H9C9.27637 0 9.5 0.20643 9.5 0.461538C9.5 0.716647 9.27637 0.923077 9 0.923077H8V2.76923H16.0963L15.0689 1.157C14.978 1.01457 14.9771 0.837441 15.0659 0.694112C15.1548 0.550332 15.3208 0.46154 15.5 0.46154H18C18.2764 0.46154 18.5 0.66797 18.5 0.923078C18.5 1.17819 18.2764 1.38462 18 1.38462H16.374L19.1746 5.77908C19.5836 5.62401 20.0312 5.53846 20.5 5.53846C22.4297 5.53846 24 6.98798 24 8.76923C24 10.5505 22.4297 12 20.5 12C18.5703 12 17 10.5505 17 8.76923C17 7.75092 17.5132 6.84103 18.3134 6.2484L16.9794 4.15512L13.7881 9.23077H13.5ZM8.70703 3.69231H16.1143L13.3938 8.01852L8.70703 3.69231ZM7.57773 3.95516L5.83654 6.36592C6.43301 6.86055 6.84505 7.54112 6.96438 8.30769H12.293L7.57773 3.95516ZM20.5005 9.23077C20.3291 9.23077 20.1621 9.14964 20.0689 9.00316L18.8276 7.05538C18.3198 7.47807 18 8.08985 18 8.76923C18 10.0416 19.1216 11.0769 20.5 11.0769C21.8784 11.0769 23 10.0416 23 8.76923C23 7.49684 21.8784 6.46154 20.5 6.46154C20.2163 6.46154 19.9434 6.5054 19.689 6.58618L20.9312 8.53531C21.0708 8.75481 20.9917 9.03786 20.7534 9.16722C20.6738 9.21049 20.5864 9.23077 20.5005 9.23077ZM5.27399 7.1448C5.61054 7.45794 5.85078 7.8594 5.94976 8.30769H4.43408L5.27399 7.1448ZM4.44255 6.63182L3.09961 8.49114L2.93262 8.73588L3.229 9.23077H5.94976C5.71747 10.2828 4.70724 11.0769 3.5 11.0769C2.12158 11.0769 1 10.0416 1 8.76923C1 7.49684 2.12158 6.46154 3.5 6.46154C3.83327 6.46154 4.15153 6.52206 4.44255 6.63182Z" fill="#3E3EAF"/>
</svg>
