<svg width="19" height="18" viewBox="0 0 19 18" fill="none" xmlns="http://www.w3.org/2000/svg">
<path d="M16.9643 0H2.03571C1.49581 0 0.978017 0.203188 0.596247 0.564866C0.214476 0.926543 0 1.41708 0 1.92857L0 16.0714C0 16.5829 0.214476 17.0735 0.596247 17.4351C0.978017 17.7968 1.49581 18 2.03571 18H7.85658V11.8804H5.18471V9H7.85658V6.80464C7.85658 4.30754 9.42578 2.92821 11.8292 2.92821C12.9802 2.92821 14.1838 3.12268 14.1838 3.12268V5.57357H12.8577C11.551 5.57357 11.1434 6.34179 11.1434 7.12969V9H14.0604L13.5939 11.8804H11.1434V18H16.9643C17.5042 18 18.022 17.7968 18.4038 17.4351C18.7855 17.0735 19 16.5829 19 16.0714V1.92857C19 1.41708 18.7855 0.926543 18.4038 0.564866C18.022 0.203188 17.5042 0 16.9643 0Z" fill="white"/>
</svg>
