<svg width="31" height="46" viewBox="0 0 31 46" fill="none" xmlns="http://www.w3.org/2000/svg">
<path d="M30.4875 15.0105C30.2219 9.73691 27.3982 5.11263 23.3099 2.43627C21.0094 0.973964 18.4197 0.147322 15.9378 0.0190973C15.7091 0.00818457 15.483 0 15.2542 0C15.0255 0 14.7994 0.00818457 14.5707 0.0190973C12.0888 0.147322 9.49644 0.973964 7.19858 2.43627C3.11027 5.1099 0.286576 9.73418 0.0210331 15.0105C0.00788741 15.2806 0 15.5507 0 15.829C0 31.4315 15.2542 46 15.2542 46V31.6579C22.8814 31.6579 30.5085 25.1375 30.5085 15.829C30.5059 15.5507 30.498 15.2806 30.4875 15.0105ZM15.2542 23.0232C11.4262 23.0232 8.32122 19.8012 8.32122 15.829C8.32122 11.8567 11.4262 8.63472 15.2542 8.63472C19.0823 8.63472 22.1873 11.8567 22.1873 15.829C22.1873 19.8012 19.0823 23.0232 15.2542 23.0232Z" fill="#22226D"/>
<path d="M15.2543 23.0232C19.0833 23.0232 22.1873 19.8022 22.1873 15.829C22.1873 11.8557 19.0833 8.63472 15.2543 8.63472C11.4253 8.63472 8.32123 11.8557 8.32123 15.829C8.32123 19.8022 11.4253 23.0232 15.2543 23.0232Z" fill="#52EF86"/>
</svg>
