<svg width="26" height="38" viewBox="0 0 26 38" fill="none" xmlns="http://www.w3.org/2000/svg">
<path d="M25.5557 12.4C25.3331 8.04353 22.9662 4.22347 19.5392 2.01257C17.6108 0.804579 15.4401 0.121701 13.3596 0.0157761C13.1679 0.00676117 12.9784 0 12.7867 0C12.5949 0 12.4054 0.00676117 12.2137 0.0157761C10.1332 0.121701 7.96025 0.804579 6.0341 2.01257C2.60714 4.22122 0.240218 8.04128 0.0176307 12.4C0.0066115 12.6231 0 12.8462 0 13.0761C0 25.9651 12.7867 38 12.7867 38V26.1522C19.18 26.1522 25.5733 20.7658 25.5733 13.0761C25.5711 12.8462 25.5645 12.6231 25.5557 12.4ZM12.7867 19.0192C9.57787 19.0192 6.97514 16.3575 6.97514 13.0761C6.97514 9.79467 9.57787 7.13303 12.7867 7.13303C15.9954 7.13303 18.5982 9.79467 18.5982 13.0761C18.5982 16.3575 15.9954 19.0192 12.7867 19.0192Z" fill="#52EF86"/>
</svg>
