<svg width="114" height="38" viewBox="0 0 114 38" fill="none" xmlns="http://www.w3.org/2000/svg">
<path d="M42.8293 7.7168C45.3637 7.7168 47.3097 8.17205 48.6673 9.08481C50.0249 9.99756 50.7036 11.4895 50.7036 13.563C50.7036 15.6544 50.016 17.1644 48.643 18.0907C47.2701 19.0192 45.3064 19.4835 42.7544 19.4835H41.5511V25.3048H37.723V8.16979C38.5583 8.00302 39.4398 7.88583 40.3721 7.81821C41.3087 7.7506 42.1263 7.7168 42.8293 7.7168ZM43.074 11.0546C42.7963 11.0546 42.523 11.0636 42.2519 11.0793C41.9831 11.0974 41.7494 11.1132 41.5533 11.1289V16.1457H42.7544C44.0789 16.1457 45.0772 15.9609 45.7472 15.5936C46.4172 15.2262 46.7522 14.5388 46.7522 13.5359C46.7522 13.0514 46.6662 12.6502 46.4943 12.3324C46.3224 12.0146 46.0778 11.76 45.7582 11.5662C45.4387 11.3746 45.0508 11.2394 44.5924 11.165C44.1362 11.0929 43.6293 11.0546 43.074 11.0546Z" fill="#52EF86"/>
<path d="M57.1807 11.7577C58.2606 11.7577 59.1598 11.8839 59.8804 12.1341C60.5989 12.3842 61.1763 12.7448 61.6104 13.2136C62.0424 13.6824 62.3509 14.2503 62.5294 14.9197C62.7101 15.589 62.7983 16.3327 62.7983 17.1531V24.9307C62.2738 25.0479 61.5465 25.1854 60.6143 25.3454C59.6821 25.5054 58.5537 25.5843 57.2292 25.5843C56.3939 25.5843 55.638 25.5099 54.9592 25.3589C54.2805 25.2079 53.6964 24.9622 53.205 24.6197C52.7135 24.2771 52.3389 23.8286 52.0766 23.2765C51.8144 22.7243 51.6843 22.0459 51.6843 21.2436C51.6843 20.4751 51.8364 19.8215 52.1383 19.2874C52.4403 18.7532 52.8458 18.325 53.3526 18.0073C53.8595 17.6895 54.4391 17.4596 55.0937 17.3176C55.7482 17.1756 56.427 17.1035 57.13 17.1035C57.6038 17.1035 58.0248 17.1238 58.3928 17.1666C58.7609 17.2094 59.0584 17.2635 59.2876 17.3289V16.9773C59.2876 16.3418 59.098 15.8324 58.7234 15.447C58.3465 15.0616 57.692 14.8701 56.7598 14.8701C56.1383 14.8701 55.5256 14.9174 54.9196 15.0076C54.3135 15.1 53.7912 15.2284 53.3504 15.3975L52.8832 12.3865C53.0948 12.3189 53.3615 12.249 53.681 12.1724C54.0006 12.0957 54.3466 12.0304 54.7234 11.9718C55.1003 11.9132 55.497 11.8636 55.9135 11.8208C56.3344 11.778 56.7554 11.7577 57.1807 11.7577ZM57.476 22.695C57.8352 22.695 58.179 22.686 58.5074 22.6702C58.8336 22.6544 59.0958 22.6296 59.292 22.5958V19.7607C59.1443 19.7269 58.9239 19.693 58.6286 19.6592C58.3333 19.6254 58.0644 19.6097 57.8198 19.6097C57.476 19.6097 57.1521 19.6299 56.8501 19.6728C56.546 19.7156 56.2815 19.7945 56.0523 19.9117C55.8231 20.0289 55.6424 20.1866 55.5124 20.3894C55.3824 20.59 55.3163 20.8402 55.3163 21.1422C55.3163 21.7282 55.508 22.1338 55.8937 22.3592C56.2771 22.5823 56.8038 22.695 57.476 22.695Z" fill="#52EF86"/>
<path d="M73.1519 15.42C72.8235 15.3366 72.4401 15.2487 71.9993 15.1563C71.5585 15.0639 71.0825 15.0188 70.5756 15.0188C70.3464 15.0188 70.0731 15.0391 69.7536 15.0819C69.434 15.1247 69.1938 15.1698 69.0307 15.2194V25.3048H65.3746V12.8101C66.0291 12.5758 66.8004 12.3549 67.693 12.1453C68.5833 11.9357 69.5773 11.832 70.6748 11.832C70.8709 11.832 71.1089 11.8456 71.3866 11.8703C71.6643 11.8951 71.942 11.9289 72.2219 11.9718C72.4996 12.0146 72.7772 12.0642 73.0571 12.1228C73.3348 12.1814 73.5728 12.2535 73.769 12.3369L73.1519 15.42Z" fill="#52EF86"/>
<path d="M79.1375 16.8466C79.4967 16.4477 79.8692 16.033 80.2526 15.6003C80.6361 15.1676 81.0086 14.7394 81.3678 14.3157C81.727 13.892 82.0664 13.4885 82.3838 13.1054C82.7033 12.7223 82.9766 12.391 83.2058 12.107H87.5517C86.6856 13.1257 85.8372 14.097 85.0129 15.0233C84.1865 15.9496 83.2829 16.9052 82.3022 17.8901C82.7937 18.3431 83.3005 18.884 83.8229 19.5105C84.3452 20.1393 84.852 20.7883 85.3435 21.4577C85.835 22.1271 86.2845 22.7987 86.6922 23.468C87.1 24.1374 87.4438 24.7504 87.7236 25.3025H83.5209C83.2587 24.8676 82.9612 24.3853 82.6262 23.8557C82.2912 23.3283 81.9364 22.7987 81.5617 22.2713C81.1849 21.7439 80.7904 21.2368 80.3739 20.75C79.9573 20.2632 79.5452 19.853 79.1375 19.5172V25.3025H75.4813V6.4389L79.1375 5.83716V16.8466Z" fill="#52EF86"/>
<path d="M87.9462 18.8073C87.9462 17.6376 88.1226 16.6122 88.473 15.7333C88.8234 14.8543 89.2862 14.1241 89.8592 13.5381C90.4322 12.9522 91.0889 12.5104 91.8338 12.2084C92.5787 11.9064 93.3434 11.7577 94.128 11.7577C95.9594 11.7577 97.4073 12.3301 98.4696 13.4773C99.5318 14.6222 100.065 16.308 100.065 18.5324C100.065 18.751 100.056 18.9876 100.041 19.2468C100.023 19.506 100.008 19.7359 99.9924 19.9364H91.6994C91.7809 20.705 92.1335 21.3157 92.755 21.7687C93.3765 22.2195 94.2096 22.4471 95.2564 22.4471C95.9263 22.4471 96.5853 22.384 97.231 22.26C97.8767 22.1338 98.4035 21.9806 98.8134 21.7958L99.3048 24.8315C99.1087 24.9329 98.8464 25.0321 98.5203 25.1335C98.1919 25.2349 97.8282 25.3206 97.4294 25.3972C97.0283 25.4716 96.5985 25.5347 96.1423 25.5843C95.6839 25.6338 95.2255 25.6586 94.7693 25.6586C93.6079 25.6586 92.5985 25.4829 91.739 25.1313C90.8795 24.7797 90.1677 24.2996 89.6035 23.6889C89.0393 23.0781 88.6228 22.3547 88.3517 21.5186C88.0807 20.6802 87.9462 19.7764 87.9462 18.8073ZM96.5324 17.3762C96.5148 17.0584 96.4619 16.7497 96.3737 16.4477C96.2834 16.1457 96.1445 15.8797 95.9572 15.6454C95.7699 15.411 95.5319 15.2194 95.2454 15.0684C94.9589 14.9174 94.604 14.843 94.1787 14.843C93.7688 14.843 93.4184 14.9152 93.1231 15.0571C92.8277 15.1991 92.5831 15.3884 92.387 15.6206C92.1908 15.855 92.0388 16.1277 91.933 16.4364C91.8272 16.7452 91.7501 17.0607 91.6994 17.3762H96.5324Z" fill="#52EF86"/>
<path d="M114 12.1093C113.262 14.6515 112.493 17.0359 111.688 19.2603C110.884 21.4847 110.007 23.6415 109.057 25.733C108.713 26.4857 108.369 27.1258 108.025 27.6532C107.682 28.1805 107.305 28.6155 106.895 28.9581C106.485 29.3006 106.022 29.5508 105.506 29.7108C104.991 29.8686 104.389 29.9497 103.701 29.9497C103.128 29.9497 102.6 29.8956 102.117 29.7874C101.634 29.6793 101.238 29.5576 100.925 29.4246L101.562 26.4384C101.938 26.5714 102.273 26.6638 102.569 26.7134C102.864 26.763 103.175 26.7877 103.501 26.7877C104.155 26.7877 104.658 26.6074 105.011 26.2491C105.363 25.8885 105.661 25.3927 105.908 24.7571C105.072 23.0849 104.237 21.2075 103.404 19.1251C102.571 17.0427 101.784 14.7055 101.048 12.1138H104.925C105.088 12.7651 105.282 13.4728 105.504 14.2345C105.727 14.9963 105.96 15.7648 106.207 16.5423C106.454 17.3199 106.703 18.0771 106.959 18.8118C107.212 19.5488 107.457 20.2159 107.686 20.8199C107.9 20.2181 108.12 19.5488 108.352 18.8118C108.581 18.0749 108.808 17.3199 109.028 16.5423C109.251 15.7648 109.462 14.9963 109.669 14.2345C109.874 13.4728 110.06 12.7673 110.225 12.1138H114V12.1093Z" fill="#52EF86"/>
<path d="M25.5557 12.4C25.3331 8.04353 22.9662 4.22347 19.5392 2.01257C17.6108 0.804579 15.4401 0.121701 13.3596 0.0157761C13.1679 0.00676117 12.9784 0 12.7867 0C12.5949 0 12.4054 0.00676117 12.2137 0.0157761C10.1332 0.121701 7.96025 0.804579 6.0341 2.01257C2.60714 4.22122 0.240218 8.04128 0.0176307 12.4C0.0066115 12.6231 0 12.8462 0 13.0761C0 25.9651 12.7867 38 12.7867 38V26.1522C19.18 26.1522 25.5733 20.7658 25.5733 13.0761C25.5711 12.8462 25.5645 12.6231 25.5557 12.4ZM12.7867 19.0192C9.57787 19.0192 6.97514 16.3575 6.97514 13.0761C6.97514 9.79467 9.57787 7.13303 12.7867 7.13303C15.9954 7.13303 18.5982 9.79467 18.5982 13.0761C18.5982 16.3575 15.9954 19.0192 12.7867 19.0192Z" fill="#52EF86"/>
</svg>
